# File created by Blade
# Date/Time:  Tue Jan 27 17:16:36 2015
#---------------------------------------------------------
:version 1.10
:name HOM
:units
  mass 1.0
  length 1.000000
  angle deg
:documentation
     Acclaim Skeleton File
:root
   axis xyz
   order TX TY TZ RX RY RZ
   position 0.000000 0.000000 0.000000
   orientation 0 0 0
:bonedata
   begin
      id 1
      name Spine_dum
      direction 0.000000 1.000000 0.000000
      length 7.539951
      axis 0.0 0.0 0.0 xyz
   end
   begin
      id 2
      name LeftUpLeg_dum
      direction 1.000000 0.000000 0.000000
      length 3.345476
      axis 0.0 0.0 0.0 xyz
   end
   begin
      id 3
      name RightUpLeg_dum
      direction -1.000000 0.000000 0.000000
      length 3.345476
      axis 0.0 0.0 0.0 xyz
   end
   begin
      id 4
      name Spine
      direction 0.000000 1.000000 0.000000
      length 0.000000
      axis 0.0 0.0 0.0 xyz
      dof rx ry rz
   end
   begin
      id 5
      name Spine_dum1
      direction 0.000000 1.000000 0.000000
      length 15.093809
      axis 0.0 0.0 0.0 xyz
   end
   begin
      id 6
      name Spine_dum2
      direction 0.000000 1.000000 0.000000
      length 9.738928
      axis 0.0 0.0 0.0 xyz
   end
   begin
      id 7
      name Spine_dum3
      direction 0.000000 1.000000 0.000000
      length 9.738928
      axis 0.0 0.0 0.0 xyz
   end
   begin
      id 8
      name Head
      direction 0.000000 1.000000 0.000000
      length 4.527550
      axis 0.0 0.0 0.0 xyz
      dof rx ry rz
   end
   begin
      id 9
      name LeftShoulder
      direction 1.000000 0.000000 0.000000
      length 7.084015
      axis 0.0 0.0 -90.0 xyz
      dof rx ry rz
   end
   begin
      id 10
      name LeftArm
      direction 1.000000 0.000000 0.000000
      length 10.259319
      axis 0.0 0.0 -90.0 xyz
      dof rx ry rz
   end
   begin
      id 11
      name LeftForeArm
      direction 1.000000 0.000000 0.000000
      length 9.896984
      axis 0.0 0.0 -90.0 xyz
      dof ry rz rx
   end
   begin
      id 12
      name LeftHand
      direction 0.000000 0.000000 0.000000
      length 0.000000
      axis 0.0 0.0 -90.0 xyz
      dof rx ry rz
   end
   begin
      id 13
      name LeftHand_dum1
      direction 0.000000 0.000000 0.000000
      length 0.000000
      axis 0.0 0.0 -90.0 xyz
   end
   begin
      id 14
      name LeftHand_dum2
      direction 1.000000 0.000000 0.000000
      length 3.937000
      axis 0.0 0.0 -90.0 xyz
   end
   begin
      id 15
      name LeftHandThumb1
      direction 0.000000 0.000000 1.000000
      length 3.937000
      axis 0.0 0.0 -90.0 xyz
      dof rx rz ry
   end
   begin
      id 16
      name RightShoulder
      direction -1.000000 0.000000 0.000000
      length 7.084015
      axis 0.0 0.0 90.0 xyz
      dof rx ry rz
   end
   begin
      id 17
      name RightArm
      direction -1.000000 0.000000 0.000000
      length 10.259319
      axis 0.0 0.0 90.0 xyz
      dof rx ry rz
   end
   begin
      id 18
      name RightForeArm
      direction -1.000000 0.000000 0.000000
      length 9.896984
      axis 0.0 0.0 90.0 xyz
      dof ry rz rx
   end
   begin
      id 19
      name RightHand
      direction 0.000000 0.000000 0.000000
      length 0.000000
      axis 0.0 0.0 90.0 xyz
      dof rx ry rz
   end
   begin
      id 20
      name RightHand_dum1
      direction 0.000000 0.000000 0.000000
      length 0.000000
      axis 0.0 0.0 90.0 xyz
   end
   begin
      id 21
      name RightHand_dum2
      direction -1.000000 0.000000 0.000000
      length 3.937000
      axis 0.0 0.0 90.0 xyz
   end
   begin
      id 22
      name RightHandThumb1
      direction 0.000000 0.000000 1.000000
      length 3.937000
      axis 0.0 0.0 90.0 xyz
      dof rx rz ry
   end
   begin
      id 23
      name LeftUpLeg
      direction 0.000000 -1.000000 0.000000
      length 19.114733
      axis 0.0 0.0 0.0 xyz
      dof rx ry rz
   end
   begin
      id 24
      name LeftLeg
      direction 0.000000 -1.000000 0.000000
      length 16.045604
      axis 0.0 0.0 0.0 xyz
      dof rx ry rz
   end
   begin
      id 25
      name LeftFoot
      direction 0.000000 -0.258819 0.965926
      length 5.543155
      axis 15.0 0.0 0.0 xyz
      dof rx ry rz
   end
   begin
      id 26
      name LeftToeBase
      direction 0.000000 0.000000 1.000000
      length 2.952750
      axis 0.0 0.0 0.0 xyz
      dof rx ry rz
   end
   begin
      id 27
      name RightUpLeg
      direction 0.000000 -1.000000 0.000000
      length 19.114733
      axis 0.0 0.0 0.0 xyz
      dof rx ry rz
   end
   begin
      id 28
      name RightLeg
      direction 0.000000 -1.000000 0.000000
      length 16.045604
      axis 0.0 0.0 0.0 xyz
      dof rx ry rz
   end
   begin
      id 29
      name RightFoot
      direction 0.000000 -0.258819 0.965926
      length 5.543155
      axis 15.0 0.0 0.0 xyz
      dof rx ry rz
   end
   begin
      id 30
      name RightToeBase
      direction 0.000000 0.000000 1.000000
      length 2.952750
      axis 0.0 0.0 0.0 xyz
      dof rx ry rz
   end
:hierarchy
   begin
      root Spine_dum LeftUpLeg_dum RightUpLeg_dum
      Spine_dum Spine
      LeftUpLeg_dum LeftUpLeg
      RightUpLeg_dum RightUpLeg
      Spine Spine_dum1 Spine_dum2 Spine_dum3
      Spine_dum1 Head
      Spine_dum2 LeftShoulder
      Spine_dum3 RightShoulder
      LeftShoulder LeftArm
      LeftArm LeftForeArm
      LeftForeArm LeftHand
      LeftHand LeftHand_dum1 LeftHand_dum2
      LeftHand_dum1 LeftHandThumb1
      RightShoulder RightArm
      RightArm RightForeArm
      RightForeArm RightHand
      RightHand RightHand_dum1 RightHand_dum2
      RightHand_dum1 RightHandThumb1
      LeftUpLeg LeftLeg
      LeftLeg LeftFoot
      LeftFoot LeftToeBase
      RightUpLeg RightLeg
      RightLeg RightFoot
      RightFoot RightToeBase
   end

# File created by Blade
# Date/Time:  Tue Jan 27 17:16:27 2015
# Frame Rate: 120.000 fps
#------------------------------------------------------
:FULLY-SPECIFIED
:DEGREES
487
root -2.330992 37.279874 0.434190 -1.758648 -51.911284 8.465625
Spine -0.585610 19.177108 -11.439151
Head 0.847849 4.896163 4.257979
LeftShoulder -7.009052 -8.374158 13.916492
LeftArm -26.576306 -26.500271 -23.881732
LeftForeArm 6.534701 0.000000 59.517877
LeftHand -17.681633 -0.000000 53.067026
LeftHandThumb1 -26.253704 0.000000 33.147579
RightShoulder -4.706816 -20.690522 1.425498
RightArm 18.599128 -23.947866 60.952150
RightForeArm -171.521708 0.000000 30.260136
RightHand 0.848175 -0.000000 4.795239
RightHandThumb1 -24.326973 -0.000000 -32.862282
LeftUpLeg -68.335318 3.373961 8.095357
LeftLeg 122.255232 -0.000000 -0.000000
LeftFoot -2.442963 -9.090916 -16.724346
LeftToeBase 14.136983 -0.000000 -0.000000
RightUpLeg -12.764268 -1.662100 -0.362527
RightLeg 17.894649 -0.000000 -0.000000
RightFoot -10.800067 22.738802 1.643367
RightToeBase 12.810770 -0.000000 -0.000000
488
root -2.333221 37.268461 0.433043 -1.713472 -51.911119 8.290949
Spine -0.402708 19.300568 -11.230901
Head 0.711551 4.789113 4.197867
LeftShoulder -7.063582 -8.375064 13.896862
LeftArm -26.498984 -26.505509 -23.961131
LeftForeArm 6.456961 -0.000000 59.566957
LeftHand -17.737215 0.000000 53.093719
LeftHandThumb1 -26.253704 0.000000 33.147579
RightShoulder -4.670314 -20.630392 1.360554
RightArm 18.543546 -23.855766 61.019053
RightForeArm -171.609921 -0.000000 30.109445
RightHand 0.920372 -0.000000 4.848135
RightHandThumb1 -24.326973 -0.000000 -32.862282
LeftUpLeg -68.411483 3.480983 7.968481
LeftLeg 121.295998 -0.000000 -0.000000
LeftFoot -1.500165 -9.544025 -17.289748
LeftToeBase 13.909119 -0.000000 -0.000000
RightUpLeg -12.703449 -1.671455 -0.261645
RightLeg 17.968361 -0.000000 -0.000000
RightFoot -10.850768 22.832692 1.736769
RightToeBase 13.079205 -0.000000 -0.000000
489
root -2.335303 37.258007 0.431239 -1.747439 -51.923160 8.144216
Spine -0.174448 19.424573 -11.031650
Head 0.730529 4.759934 4.268486
LeftShoulder -7.044689 -8.366198 13.897488
LeftArm -26.549636 -26.559311 -23.988588
LeftForeArm 6.426236 -0.000000 59.611302
LeftHand -17.670083 -0.000000 52.874710
LeftHandThumb1 -26.253704 0.000000 33.147579
RightShoulder -4.557066 -20.596897 1.287882
RightArm 18.522353 -23.753462 61.061606
RightForeArm -171.626903 -0.000000 29.929514
RightHand 0.768034 -0.000000 5.363439
RightHandThumb1 -24.326973 -0.000000 -32.862282
LeftUpLeg -68.447911 3.630813 7.774303
LeftLeg 120.316665 -0.000000 -0.000000
LeftFoot -0.711324 -10.048491 -18.067108
LeftToeBase 13.957086 -0.000000 -0.000000
RightUpLeg -12.599833 -1.647348 -0.178831
RightLeg 18.069764 -0.000000 -0.000000
RightFoot -10.907197 22.887418 1.782327
RightToeBase 13.196632 -0.000000 -0.000000
490
root -2.338511 37.248398 0.427861 -1.736457 -51.933992 7.948948
Spine 0.056276 19.547757 -10.786520
Head 0.668555 4.705294 4.216768
LeftShoulder -7.060707 -8.358238 13.854491
LeftArm -26.540579 -26.597760 -24.001433
LeftForeArm 6.353997 -0.000000 59.622148
LeftHand -17.735870 -0.000000 52.903147
LeftHandThumb1 -26.253704 0.000000 33.147579
RightShoulder -4.482121 -20.608291 1.217555
RightArm 18.581993 -23.699154 61.046826
RightForeArm -171.661752 -0.000000 29.754049
RightHand 0.871773 -0.000000 4.985709
RightHandThumb1 -24.326973 -0.000000 -32.862282
LeftUpLeg -68.526321 3.821803 7.557996
LeftLeg 119.306637 -0.000000 -0.000000
LeftFoot 0.048007 -10.295046 -18.191336
LeftToeBase 13.677111 -0.000000 -0.000000
RightUpLeg -12.476645 -1.521755 -0.075877
RightLeg 18.114482 -0.000000 -0.000000
RightFoot -10.899635 22.888472 1.941264
RightToeBase 13.297837 -0.000000 -0.000000
491
root -2.338993 37.237842 0.430117 -1.759962 -51.940566 7.821565
Spine 0.258486 19.675488 -10.601553
Head 0.651001 4.673973 4.279733
LeftShoulder -7.081672 -8.336865 13.812109
LeftArm -26.541472 -26.626528 -23.975289
LeftForeArm 6.266216 -0.000000 59.630033
LeftHand -17.656431 -0.000000 52.668873
LeftHandThumb1 -26.253704 0.000000 33.147579
RightShoulder -4.455386 -20.579678 1.167428
RightArm 18.608289 -23.685204 61.024095
RightForeArm -171.657387 -0.000000 29.611026
RightHand 0.976986 -0.000000 4.819976
RightHandThumb1 -24.326973 -0.000000 -32.862282
LeftUpLeg -68.651662 4.039039 7.238582
LeftLeg 118.256795 -0.000000 -0.000000
LeftFoot 0.689914 -10.557778 -18.735898
LeftToeBase 13.980679 -0.000000 -0.000000
RightUpLeg -12.426539 -1.517226 -0.006249
RightLeg 18.279721 -0.000000 -0.000000
RightFoot -10.976247 22.934524 1.962150
RightToeBase 13.425881 -0.000000 -0.000000
492
root -2.339692 37.228600 0.432488 -1.839211 -51.941895 7.684938
Spine 0.543958 19.791157 -10.367220
Head 0.642842 4.633582 4.247789
LeftShoulder -7.096430 -8.343656 13.749364
LeftArm -26.529948 -26.663415 -23.941977
LeftForeArm 6.238066 -0.000000 59.580992
LeftHand -17.770022 0.000000 52.749504
LeftHandThumb1 -26.253704 0.000000 33.147579
RightShoulder -4.385634 -20.547524 1.081854
RightArm 18.633008 -23.636157 61.012129
RightForeArm -171.738939 -0.000000 29.498642
RightHand 1.163474 -0.000000 4.661669
RightHandThumb1 -24.326973 -0.000000 -32.862282
LeftUpLeg -68.727981 4.235225 6.943634
LeftLeg 117.151322 -0.000000 -0.000000
LeftFoot 1.437390 -10.818724 -19.421167
LeftToeBase 14.046332 -0.000000 -0.000000
RightUpLeg -12.291469 -1.507078 0.065748
RightLeg 18.408890 -0.000000 -0.000000
RightFoot -11.017493 22.963538 2.000628
RightToeBase 13.399074 -0.000000 -0.000000
493
root -2.337009 37.217688 0.434723 -1.879443 -51.955278 7.539753
Spine 0.799090 19.915318 -10.134303
Head 0.566960 4.527522 4.122798
LeftShoulder -7.132577 -8.371539 13.693959
LeftArm -26.537098 -26.680696 -23.925188
LeftForeArm 6.084780 -0.000000 59.579818
LeftHand -17.755605 -0.000000 52.734874
LeftHandThumb1 -26.253704 0.000000 33.147579
RightShoulder -4.393360 -20.549550 1.029667
RightArm 18.761502 -23.782379 60.839076
RightForeArm -171.651970 -0.000000 29.443010
RightHand 1.294643 -0.000000 4.895363
RightHandThumb1 -24.326973 -0.000000 -32.862282
LeftUpLeg -68.871507 4.474971 6.603804
LeftLeg 115.984985 -0.000000 -0.000000
LeftFoot 2.164378 -10.940344 -19.874369
LeftToeBase 13.969221 -0.000000 -0.000000
RightUpLeg -12.203046 -1.503968 0.146021
RightLeg 18.547373 -0.000000 -0.000000
RightFoot -11.088566 22.993728 1.931609
RightToeBase 13.363075 -0.000000 -0.000000
